# xmcd
#
# Track frame offsets: 
#        150
#        19797
#        41955
#        58810
#        85897
#        113132
#        130215
#        155767
#        176882
#        203965
#        230522
#        255035
#        278545
#        300577
#        329315
#
# Disc length: 4590 seconds
#
# Revision: 2
# Processed by: cddbd v1.5.2PL0 Copyright (c) Steve Scherf et al.
# Submitted via: ExactAudioCopy v1.0b6
#
DISCID=ce11ec0f
DTITLE=Gary Moore and Colosseum II - Streets And Walkways 
DYEAR=1996
DGENRE=Rock
TTITLE0=Back On The Streets
TTITLE1=Put It This Way
TTITLE2=Don't Believe A Word
TTITLE3=Desperado
TTITLE4=The Scorch
TTITLE5=All Skin And Bone
TTITLE6=Castles
TTITLE7=Lament
TTITLE8=Wardance
TTITLE9=Fighting Talk
TTITLE10=Song For Donna
TTITLE11=Major Keys
TTITLE12=Hurricane
TTITLE13=Starmaiden-Mysterioso-Quasar
TTITLE14=Parisienne Walkways
EXTD=
EXTT0=
EXTT1=
EXTT2=
EXTT3=
EXTT4=
EXTT5=
EXTT6=
EXTT7=
EXTT8=
EXTT9=
EXTT10=
EXTT11=
EXTT12=
EXTT13=
EXTT14=
PLAYORDER=
